<?xml version="1.0" standalone="no"?><!DOCTYPE svg PUBLIC "-//W3C//DTD SVG 1.1//EN" "http://www.w3.org/Graphics/SVG/1.1/DTD/svg11.dtd"><svg t="1640153112537" class="icon" viewBox="0 0 1024 1024" version="1.1" xmlns="http://www.w3.org/2000/svg" p-id="8801" xmlns:xlink="http://www.w3.org/1999/xlink" width="200" height="200"><defs><style type="text/css"></style></defs><path d="M414.59187852 62H125.96364073A64.04433926 64.04433926 0 0 0 62 125.96364073v288.62823779a64.03425205 64.03425205 0 0 0 63.96364072 63.96364072h352.59187852V125.96364073A64.03425205 64.03425205 0 0 0 414.59187852 62z m9.13910449 361.73098301H125.96364073a9.1491917 9.1491917 0 0 1-9.13910362-9.13910449V125.96364073a9.15927891 9.15927891 0 0 1 9.13910361-9.13910362h288.6282378a9.1491917 9.1491917 0 0 1 9.13910448 9.13910361zM62 609.40812148v288.60806339a64.03425205 64.03425205 0 0 0 63.96364072 63.96364072h288.6282378a64.02416484 64.02416484 0 0 0 63.96364072-63.96364072V545.44448076H125.96364073A64.04433926 64.04433926 0 0 0 62 609.40812148z m361.73098301 288.60806339a9.13910362 9.13910362 0 0 1-9.13910449 9.13910361H125.96364073a9.1491917 9.1491917 0 0 1-9.13910362-9.13910361V609.40812148a9.15927891 9.15927891 0 0 1 9.13910361-9.13910449H423.73098301zM898.08679531 62H609.40812148a64.04433926 64.04433926 0 0 0-63.96364072 63.96364072v352.59187852h352.64231455a64.02416484 64.02416484 0 0 0 63.95355352-63.96364072V125.96364073A64.03425205 64.03425205 0 0 0 898.08679531 62z m9.07858037 352.59187852a9.13910362 9.13910362 0 0 1-9.13910361 9.13910449H600.26901699V125.96364073a9.1491917 9.1491917 0 0 1 9.13910449-9.13910362h288.67867383a9.1491917 9.1491917 0 0 1 9.1391045 9.13910361zM898.08679531 545.44448076H545.44448076v352.57170411a64.03425205 64.03425205 0 0 0 63.96364072 63.96364072h288.67867383a64.02416484 64.02416484 0 0 0 63.90311748-63.96364072V609.40812148a64.03425205 64.03425205 0 0 0-63.90311748-63.96364072z m9.07858037 352.57170411a9.13910362 9.13910362 0 0 1-9.13910361 9.13910361H609.40812148a9.13910362 9.13910362 0 0 1-9.13910449-9.13910361V600.26901699h297.81777832a9.1491917 9.1491917 0 0 1 9.1391045 9.13910449z" fill="#4D4D4D" p-id="8802"></path></svg>